<svg width="19" height="186" viewBox="0 0 19 186" fill="none" xmlns="http://www.w3.org/2000/svg">
<g clip-path="url(#clip0_41_4401)">
<rect x="0.5" y="149.5" width="18" height="26" rx="9" stroke="white"/>
<path d="M9.5 157V159.5" stroke="white"/>
<path d="M9.3033 185.01L8.94975 185.364L9.3033 185.718L9.65685 185.364L9.3033 185.01ZM4 179.707L3.64645 179.354L3.29289 179.707L3.64645 180.061L4 179.707ZM9.5052 184.809L9.85876 184.455L9.5052 184.101L9.15165 184.455L9.5052 184.809ZM9.70711 185.01L9.35355 185.364L9.70711 185.718L10.0607 185.364L9.70711 185.01ZM15.0104 179.707L15.364 180.061L15.7175 179.707L15.364 179.354L15.0104 179.707ZM14.3033 179L14.6569 178.646L14.3033 178.293L13.9497 178.646L14.3033 179ZM9.5052 183.798L9.15165 184.152L9.5052 184.505L9.85876 184.152L9.5052 183.798ZM4.70711 179L5.06066 178.646L4.70711 178.293L4.35355 178.646L4.70711 179ZM9.65685 184.657L4.35355 179.354L3.64645 180.061L8.94975 185.364L9.65685 184.657ZM9.15165 184.455L8.94975 184.657L9.65685 185.364L9.85876 185.162L9.15165 184.455ZM9.15165 185.162L9.35355 185.364L10.0607 184.657L9.85876 184.455L9.15165 185.162ZM10.0607 185.364L15.364 180.061L14.6569 179.354L9.35355 184.657L10.0607 185.364ZM15.364 179.354L14.6569 178.646L13.9497 179.354L14.6569 180.061L15.364 179.354ZM13.9497 178.646L9.15165 183.445L9.85876 184.152L14.6569 179.354L13.9497 178.646ZM4.35355 179.354L9.15165 184.152L9.85876 183.445L5.06066 178.646L4.35355 179.354ZM4.35355 180.061L5.06066 179.354L4.35355 178.646L3.64645 179.354L4.35355 180.061Z" fill="white"/>
<path opacity="0.270531" d="M13 119.82H12.256C12.336 119.236 12.156 118.8 11.716 118.512C11.268 118.216 10.452 118.068 9.268 118.068H4.6V112.62H13V113.46H5.392V117.228H9.292C10.052 117.228 10.688 117.288 11.2 117.408C11.712 117.528 12.104 117.708 12.376 117.948C12.64 118.18 12.82 118.448 12.916 118.752C13.004 119.048 13.032 119.404 13 119.82ZM13 103.296H6.16L13 107.976V108.696H4.6V107.856H11.44L4.6 103.176V102.456H13V103.296ZM13.144 94.616C13.144 95.888 12.724 96.94 11.884 97.772C11.044 98.604 10.016 99.02 8.8 99.02C7.584 99.02 6.556 98.604 5.716 97.772C4.876 96.94 4.456 95.888 4.456 94.616C4.456 93.84 4.644 93.128 5.02 92.48C5.388 91.832 5.888 91.332 6.52 90.98L6.952 91.724C6.44 91.988 6.032 92.38 5.728 92.9C5.424 93.42 5.272 93.992 5.272 94.616C5.272 95.664 5.612 96.52 6.292 97.184C6.972 97.848 7.808 98.18 8.8 98.18C9.792 98.18 10.628 97.848 11.308 97.184C11.988 96.52 12.328 95.664 12.328 94.616C12.328 93.992 12.176 93.42 11.872 92.9C11.568 92.38 11.16 91.988 10.648 91.724L11.068 90.98C11.7 91.324 12.204 91.824 12.58 92.48C12.956 93.128 13.144 93.84 13.144 94.616ZM4.6 82.4358H5.392V85.0158H13V85.8558H5.392V88.4358H4.6V82.4358ZM13 74.241L10.936 75.021L10.936 79.005L13 79.785V80.673L4.6 77.445V76.581L13 73.353V74.241ZM10.144 78.705L10.144 75.321L5.644 77.013L10.144 78.705ZM3.64 68.7144H2.944L2.944 65.5944H3.64L3.64 68.7144ZM13 64.8744H6.16L13 69.5544V70.2744H4.6V69.4344H11.44L4.6 64.7544V64.0344H13V64.8744ZM4.6 54.8381H5.392V57.4181H13V58.2581H5.392V60.8381H4.6V54.8381ZM12.208 50.7977L12.208 46.7177H13L13 51.6377H4.6L4.6 46.7777H5.392V50.7977H8.368V47.0777H9.16V50.7977H12.208ZM8.644 33.6184C8.82 33.2104 9.088 32.8864 9.448 32.6464C9.8 32.3984 10.204 32.2744 10.66 32.2744C11.308 32.2744 11.86 32.5024 12.316 32.9584C12.772 33.4144 13 33.9664 13 34.6144V38.2744H4.6V34.8904C4.6 34.2664 4.824 33.7344 5.272 33.2944C5.712 32.8544 6.24 32.6344 6.856 32.6344C7.64 32.6344 8.236 32.9624 8.644 33.6184ZM5.392 34.8904V37.4344H8.32V34.8904C8.32 34.4984 8.18 34.1664 7.9 33.8944C7.612 33.6144 7.264 33.4744 6.856 33.4744C6.456 33.4744 6.112 33.6144 5.824 33.8944C5.536 34.1664 5.392 34.4984 5.392 34.8904ZM12.208 34.6144C12.208 34.1984 12.06 33.8464 11.764 33.5584C11.46 33.2624 11.092 33.1144 10.66 33.1144C10.236 33.1144 9.872 33.2624 9.568 33.5584C9.264 33.8464 9.112 34.1984 9.112 34.6144V37.4344H12.208V34.6144ZM4.6 23.433V22.593H13V23.433H9.076L9.076 27.993H13V28.833H4.6V27.993H8.284L8.284 23.433H4.6ZM13 13.2767H6.16L13 17.9567L13 18.6767H4.6V17.8367H11.44L4.6 13.1567V12.4367H13V13.2767ZM8.656 4.64447C8.832 4.18047 9.1 3.82047 9.46 3.56447C9.82 3.30847 10.244 3.18047 10.732 3.18047C11.436 3.18047 12.016 3.44447 12.472 3.97247C12.92 4.49247 13.144 5.19647 13.144 6.08447C13.144 6.88447 12.964 7.52447 12.604 8.00447C12.244 8.48447 11.792 8.81647 11.248 9.00047L10.84 8.28047C11.264 8.17647 11.624 7.95247 11.92 7.60847C12.208 7.25647 12.352 6.74847 12.352 6.08447C12.352 5.42847 12.204 4.92047 11.908 4.56047C11.604 4.20047 11.212 4.02047 10.732 4.02047C10.252 4.02047 9.864 4.18847 9.568 4.52447C9.264 4.85247 9.112 5.30847 9.112 5.89247V6.85247H8.32V6.19247C8.32 5.62447 8.176 5.17247 7.888 4.83647C7.6 4.50047 7.228 4.33247 6.772 4.33247C6.324 4.33247 5.96 4.49647 5.68 4.82447C5.392 5.14447 5.248 5.58447 5.248 6.14447C5.248 7.17647 5.688 7.85647 6.568 8.18447L6.16 8.88047C5.648 8.67247 5.236 8.34447 4.924 7.89647C4.612 7.44047 4.456 6.85647 4.456 6.14447C4.456 5.35247 4.68 4.71247 5.128 4.22447C5.568 3.73647 6.12 3.49247 6.784 3.49247C7.624 3.49247 8.248 3.87647 8.656 4.64447Z" fill="white"/>
</g>
<defs>
<clipPath id="clip0_41_4401">
<rect width="19" height="185.01" fill="white"/>
</clipPath>
</defs>
</svg>
