<svg width="50" height="50" viewBox="0 0 50 50" fill="none" xmlns="http://www.w3.org/2000/svg">
<path fill-rule="evenodd" clip-rule="evenodd" d="M45.5282 4.47175C45.935 4.87855 45.935 5.5381 45.5282 5.94489L5.9449 45.5282C5.5381 45.935 4.87856 45.935 4.47176 45.5282C4.06497 45.1214 4.06497 44.4619 4.47176 44.0551L44.0551 4.47175C44.4619 4.06496 45.1214 4.06496 45.5282 4.47175Z" fill="white"/>
<path fill-rule="evenodd" clip-rule="evenodd" d="M36.4583 27.0833C32.5432 27.0833 29.1667 30.6956 29.1667 35.4167C29.1667 40.1378 32.5432 43.75 36.4583 43.75C40.3735 43.75 43.75 40.1378 43.75 35.4167C43.75 30.6956 40.3735 27.0833 36.4583 27.0833ZM27.0833 35.4167C27.0833 29.7824 31.1687 25 36.4583 25C41.748 25 45.8333 29.7824 45.8333 35.4167C45.8333 41.0509 41.748 45.8333 36.4583 45.8333C31.1687 45.8333 27.0833 41.0509 27.0833 35.4167Z" fill="white"/>
<path fill-rule="evenodd" clip-rule="evenodd" d="M13.5417 6.24999C9.62654 6.24999 6.25 9.86222 6.25 14.5833C6.25 19.3044 9.62654 22.9167 13.5417 22.9167C17.4568 22.9167 20.8333 19.3044 20.8333 14.5833C20.8333 9.86222 17.4568 6.24999 13.5417 6.24999ZM4.16666 14.5833C4.16666 8.94909 8.25204 4.16666 13.5417 4.16666C18.8313 4.16666 22.9167 8.94909 22.9167 14.5833C22.9167 20.2176 18.8313 25 13.5417 25C8.25204 25 4.16666 20.2176 4.16666 14.5833Z" fill="white"/>
</svg>
