<svg width="105" height="105" viewBox="0 0 105 105" fill="none" xmlns="http://www.w3.org/2000/svg">
<circle cx="52.5" cy="52.5" r="52.5" fill="url(#paint0_linear_17_3991)"/>
<path fill-rule="evenodd" clip-rule="evenodd" d="M52.8691 30.6413L52.3509 29.9905C51.59 29.0354 51.5889 27.7004 52.3482 26.7439C52.6902 26.313 52.6181 25.6865 52.1872 25.3445C51.7562 25.0024 51.1297 25.0746 50.7877 25.5055C49.4487 27.1925 49.4507 29.5471 50.7926 31.2317L51.3108 31.8825C52.305 33.1306 52.3065 34.8752 51.3144 36.1252L50.7833 36.7944C50.4412 37.2253 50.5134 37.8519 50.9443 38.1938C51.1275 38.3392 51.3459 38.4098 51.5628 38.4098C51.8563 38.4098 52.1471 38.2807 52.3438 38.0329L52.8749 37.3637C54.4467 35.3833 54.4444 32.6189 52.8691 30.6413ZM72.8359 45.6979H81.0039C81.554 45.6979 82 46.1438 82 46.694V53.8161C82 59.1071 77.6954 63.4117 72.4043 63.4117H69.5926C68.3485 65.3724 66.7863 67.1123 64.9805 68.5582H74.2304C74.7805 68.5582 75.2265 69.0042 75.2265 69.5543C75.2265 73.1794 72.2774 76.1285 68.6523 76.1285H37.5742C33.9491 76.1285 31 73.1794 31 69.5543C31 69.0042 31.4461 68.5582 31.9961 68.5582H38.8554C36.8934 66.9872 35.218 65.0699 33.9267 62.8987C32.012 59.6795 31 55.9875 31 52.2223V43.5896C31 43.0394 31.4461 42.5935 31.9961 42.5935H39.666C40.2161 42.5935 40.6621 43.0394 40.6621 43.5896C40.6621 44.1397 40.2161 44.5857 39.666 44.5857H32.9922V52.2223C32.9922 58.9307 36.5738 65.1657 42.3573 68.5581H61.4787C67.2621 65.1656 70.8437 58.9307 70.8437 52.2222V44.5856H50.3242C49.7742 44.5856 49.3281 44.1396 49.3281 43.5895C49.3281 43.0393 49.7742 42.5934 50.3242 42.5934H71.8398C72.3899 42.5934 72.8359 43.0393 72.8359 43.5895V45.6979ZM68.6523 74.1364C70.8368 74.1364 72.6693 72.5996 73.1253 70.5504H61.7455H42.0904H33.1013C33.5574 72.5996 35.3897 74.1364 37.5742 74.1364H68.6523ZM72.8359 52.2223V51.6745H76.0234V53.8161C76.0234 55.8116 74.3999 57.4352 72.4043 57.4352H72.1781C72.6129 55.7412 72.8359 53.9899 72.8359 52.2223ZM72.4043 61.4195C76.5969 61.4195 80.0078 58.0086 80.0078 53.8161V47.6901H72.8359V49.6823H77.0195C77.5695 49.6823 78.0156 50.1282 78.0156 50.6784V53.8161C78.0156 56.9101 75.4985 59.4273 72.4043 59.4273H71.5593C71.3111 60.105 71.027 60.77 70.709 61.4195H72.4043ZM57.8721 32.2302L58.3904 32.8809C59.9656 34.8587 59.9679 37.6231 58.3959 39.6034L57.865 40.2725C57.6684 40.5202 57.3775 40.6494 57.0841 40.6494C56.8671 40.6494 56.6487 40.5789 56.4655 40.4335C56.0346 40.0916 55.9625 39.465 56.3045 39.0341L56.8356 38.3651C57.8277 37.1152 57.8262 35.3704 56.8321 34.1222L56.3138 33.4715C54.972 31.7868 54.97 29.4321 56.3089 27.7451C56.651 27.3142 57.2774 27.242 57.7084 27.5841C58.1394 27.9261 58.2115 28.5526 57.8694 28.9836C57.1102 29.94 57.1113 31.2751 57.8721 32.2302ZM47.3479 32.881L46.8296 32.2303C46.0688 31.2753 46.0677 29.9401 46.8268 28.9837C47.1689 28.5527 47.0968 27.9262 46.6659 27.5841C46.2348 27.2421 45.6084 27.3144 45.2663 27.7451C43.9275 29.4321 43.9295 31.7869 45.2713 33.4715L45.7896 34.1222C46.7837 35.3704 46.7852 37.1152 45.7932 38.365L45.2621 39.034C44.92 39.4649 44.992 40.0915 45.4229 40.4335C45.6061 40.5789 45.8245 40.6495 46.0415 40.6495C46.335 40.6495 46.6257 40.5204 46.8223 40.2727L47.3536 39.6035C48.9254 37.6232 48.9231 34.8588 47.3479 32.881ZM45.265 42.5931C45.527 42.5931 45.784 42.6997 45.9693 42.8849C46.1555 43.0702 46.2611 43.3272 46.2611 43.5892C46.2611 43.8521 46.1555 44.1081 45.9693 44.2944C45.784 44.4797 45.527 44.5853 45.265 44.5853C45.0031 44.5853 44.7461 44.4797 44.5608 44.2944C44.3755 44.1081 44.269 43.8511 44.269 43.5892C44.269 43.3272 44.3756 43.0712 44.5608 42.8849C44.7461 42.6997 45.0031 42.5931 45.265 42.5931ZM67.0586 51.2262C66.5085 51.2262 66.0625 51.6722 66.0625 52.2223C66.0625 55.9197 64.5628 59.5534 61.9478 62.1915C61.5605 62.5822 61.5634 63.2129 61.9541 63.6002C62.1483 63.7927 62.4018 63.8888 62.6553 63.8888C62.9117 63.8887 63.1681 63.7903 63.3629 63.5938C66.3446 60.5856 68.0547 56.4409 68.0547 52.2223C68.0547 51.6722 67.6086 51.2262 67.0586 51.2262ZM58.9167 64.5169C59.3958 64.2466 60.0033 64.4159 60.2737 64.8951C60.5439 65.3742 60.3747 65.9817 59.8955 66.2521L59.8728 66.2649C59.7182 66.3521 59.55 66.3936 59.3843 66.3936C59.0364 66.3936 58.6989 66.2112 58.5158 65.8867C58.2455 65.4076 58.4148 64.8001 58.894 64.5297L58.9167 64.5169Z" fill="url(#paint1_linear_17_3991)"/>
<defs>
<linearGradient id="paint0_linear_17_3991" x1="-10.5111" y1="47.4216" x2="51.3198" y2="116.786" gradientUnits="userSpaceOnUse">
<stop stop-color="#F0D9D4"/>
<stop offset="1" stop-color="#E9C9C2"/>
</linearGradient>
<linearGradient id="paint1_linear_17_3991" x1="17.7115" y1="39.0263" x2="45.5071" y2="90.0263" gradientUnits="userSpaceOnUse">
<stop stop-color="#AC6C44"/>
<stop offset="1" stop-color="#301103"/>
</linearGradient>
</defs>
</svg>
