<svg width="105" height="105" viewBox="0 0 105 105" fill="none" xmlns="http://www.w3.org/2000/svg">
<circle cx="52.5" cy="52.5" r="52.5" fill="url(#paint0_linear_17_4032)"/>
<path fill-rule="evenodd" clip-rule="evenodd" d="M64.6078 28.144C61.3016 26.5382 57.6723 25.7088 53.9968 25.7189C40.5811 25.7179 29.6482 36.6315 29.6248 50.0463C29.623 50.4939 29.26 50.8559 28.8124 50.8567H28.8114C28.5958 50.8567 28.3891 50.7709 28.2369 50.6183C28.0847 50.4657 27.9994 50.2588 28 50.0432C28.0028 48.2861 28.1824 46.5336 28.5362 44.8124C28.8812 43.1425 29.3904 41.5108 30.0564 39.941C35.0002 28.3107 47.5831 21.9113 59.8939 24.7664C61.7668 25.2008 63.5854 25.8432 65.3156 26.6816C65.7193 26.8769 65.8884 27.3624 65.6934 27.7662C65.5568 28.0462 65.2728 28.2242 64.9612 28.2252C64.8388 28.2252 64.7179 28.1975 64.6078 28.144ZM67.95 29.8077C67.7392 29.8515 67.5196 29.8097 67.3395 29.6916C67.0646 29.5115 66.9252 29.1835 66.9865 28.8605C67.0478 28.5376 67.2976 28.2834 67.6194 28.2166C67.9412 28.1497 68.2716 28.2833 68.4564 28.5551C68.6413 28.8269 68.6441 29.1833 68.4637 29.458C68.3456 29.6381 68.1608 29.7638 67.95 29.8077ZM45.3468 48.4717C45.3154 48.468 45.2839 48.4662 45.2523 48.4662C43.9317 48.4678 42.6294 48.7752 41.4475 49.3644C41.05 49.5671 40.8903 50.0524 41.0899 50.4515C41.2894 50.8506 41.7735 51.014 42.1742 50.8176C43.1161 50.348 44.1527 50.0995 45.2051 50.091C46.4451 50.2426 48.6274 50.7448 49.3604 51.4777C49.6776 51.795 50.192 51.795 50.5093 51.4777C50.8266 51.1605 50.8266 50.6461 50.5093 50.3288C49.1309 48.9506 45.7301 48.5169 45.3468 48.4717ZM68.0615 66.0051C67.8838 65.8833 67.665 65.837 67.4532 65.8765C67.2414 65.916 67.0539 66.038 66.9321 66.2157C65.4471 68.3802 63.0391 70.5705 59.774 72.7265C56.2715 75.0452 51.722 75.0452 48.2195 72.7265C44.1841 70.0614 39.3736 65.9438 39.3736 61.4585V50.9034C39.3736 50.4547 39.0099 50.091 38.5612 50.091C38.1125 50.091 37.7488 50.4547 37.7488 50.9034V61.4585C37.7488 66.6664 42.9559 71.1972 47.3241 74.0817C51.3695 76.7597 56.6241 76.7597 60.6695 74.0817C64.1101 71.8102 66.6679 69.4728 68.2715 67.1344C68.5253 66.7646 68.4313 66.259 68.0615 66.0051ZM41.2364 56.3523C41.3887 56.5046 41.5954 56.5902 41.8108 56.5902C42.0263 56.5902 42.2329 56.5046 42.3853 56.3523L43.491 55.2466C43.8398 55.4976 44.2096 55.7181 44.5962 55.9055L43.6736 56.8281C43.4683 57.0334 43.3882 57.3325 43.4633 57.6129C43.5384 57.8932 43.7574 58.1122 44.0378 58.1873C44.3181 58.2625 44.6173 58.1823 44.8225 57.9771L46.3213 56.4782C46.709 56.5521 47.1029 56.5896 47.4976 56.5902C49.4039 56.5902 50.402 55.6473 50.5093 55.5399L49.3604 54.3909L49.3697 54.3818C49.3442 54.4056 48.7314 54.9654 47.4976 54.9654C45.4453 54.9654 44.0217 53.59 44.0101 53.5785C43.8577 53.4261 43.6511 53.3406 43.4356 53.3406C43.2202 53.3406 43.0135 53.4261 42.8612 53.5785L41.2364 55.2033C41.084 55.3557 40.9984 55.5623 40.9984 55.7778C40.9984 55.9933 41.084 56.1999 41.2364 56.3523ZM49.1224 67.1514C49.1224 68.7219 50.4457 71.2134 53.9968 71.2134C57.548 71.2134 58.8713 68.7219 58.8713 67.1514C58.8713 66.8975 58.7525 66.6582 58.5504 66.5045C57.8418 65.9663 56.088 64.7142 55.1047 64.7142C54.695 64.7264 54.3027 64.8827 53.9968 65.1555C53.691 64.8827 53.2987 64.7264 52.889 64.7142C51.9057 64.7142 50.1519 65.9662 49.4433 66.5045C49.2412 66.6582 49.1224 66.8975 49.1224 67.1514ZM52.8675 66.3416C52.9648 66.3879 53.1315 66.5576 53.3627 66.8468C53.5168 67.0393 53.7502 67.1514 53.9968 67.1514C54.2435 67.1514 54.4769 67.0393 54.631 66.8468C54.861 66.5594 55.0271 66.3898 55.1244 66.3426C55.4418 66.3968 56.331 66.908 57.1889 67.5198C57.0243 68.2011 56.3939 69.5886 53.9968 69.5886C51.5998 69.5886 50.9694 68.2011 50.8048 67.5198C51.6689 66.9034 52.5638 66.3898 52.8675 66.3416ZM28.8124 52.4825C28.3637 52.4825 28 52.8462 28 53.2949V75.2754C28 75.7241 28.3637 76.0878 28.8124 76.0878C29.2611 76.0878 29.6248 75.7241 29.6248 75.2754V53.2949C29.6248 52.8462 29.2611 52.4825 28.8124 52.4825ZM79.3559 44.3443C78.5343 40.7081 76.9371 37.2923 74.6735 34.3304C73.5614 32.8738 72.2994 31.5382 70.908 30.3456C70.5671 30.0543 70.0548 30.0939 69.7625 30.4339C69.4706 30.7746 69.5101 31.2875 69.8509 31.5794C75.2583 36.2091 78.3704 42.9723 78.3689 50.091V75.2754C78.3689 75.7241 78.7326 76.0878 79.1813 76.0878C79.63 76.0878 79.9937 75.7241 79.9937 75.2754V50.091C79.9944 48.1577 79.7805 46.2303 79.3559 44.3443ZM57.2465 46.029C57.2465 46.4776 56.8827 46.8414 56.434 46.8414C55.9854 46.8414 55.6216 46.4776 55.6216 46.029V39.5298C55.6216 39.0811 55.9854 38.7174 56.434 38.7174C56.8827 38.7174 57.2465 39.0811 57.2465 39.5298V46.029ZM75.6989 70.401C75.7452 70.401 75.7913 70.3971 75.8369 70.3893C76.0493 70.353 76.2386 70.2338 76.3631 70.0579C76.4876 69.882 76.5371 69.6639 76.5008 69.4515C76.2477 67.972 75.7986 66.5329 75.1652 65.1721C75.0471 64.9019 74.7919 64.7168 74.4984 64.6886C74.2048 64.6605 73.9191 64.7935 73.7518 65.0364C73.5844 65.2792 73.5618 65.5936 73.6927 65.8579C74.2652 67.0877 74.6711 68.3884 74.8997 69.7255C74.9663 70.1151 75.3037 70.4002 75.6989 70.401ZM57.4205 49.1053C58.1033 52.4292 60.6281 55.069 63.9183 55.899C67.7245 56.852 71.0831 59.0939 73.423 62.2435C73.5979 62.4766 73.6346 62.7856 73.519 63.0531C73.4035 63.3207 73.1535 63.5059 72.8639 63.5384C72.5742 63.571 72.2894 63.4458 72.1174 63.2105C70.0019 60.363 66.9653 58.3362 63.5242 57.4749C59.6269 56.4911 56.6364 53.3638 55.8278 49.4264C55.768 49.1409 55.8659 48.8453 56.0842 48.6519C56.3026 48.4585 56.6078 48.397 56.884 48.4907C57.1602 48.5844 57.365 48.819 57.4205 49.1053ZM45.8728 39.5298C45.8728 39.9784 46.2366 40.3422 46.6852 40.3422C47.1339 40.3422 47.4976 39.9784 47.4976 39.5298C47.5002 37.2874 49.3173 35.4703 51.5596 35.4678C52.0083 35.4678 52.372 35.104 52.372 34.6554C52.372 34.2067 52.0083 33.843 51.5596 33.843C48.4204 33.8465 45.8764 36.3905 45.8728 39.5298ZM53.9968 47.3537C53.9906 52.8888 57.7589 57.7152 63.1303 59.0517C69.2255 60.5681 73.5016 66.0449 73.4945 72.3259V75.2754C73.4945 75.7241 73.1308 76.0878 72.6821 76.0878C72.2334 76.0878 71.8697 75.7241 71.8697 75.2754V72.3259C71.8759 66.7907 68.1076 61.9644 62.7362 60.6279C56.641 59.1115 52.3649 53.6347 52.372 47.3537V39.5298C52.372 39.0811 52.0083 38.7174 51.5596 38.7174C51.111 38.7174 50.7472 39.0811 50.7472 39.5298V41.1546C50.7472 42.266 50.1678 43.0765 49.0252 43.5634C48.1663 43.9295 47.0722 44.0933 45.8055 44.2829L45.805 44.283C41.4919 44.9287 36.124 45.7322 36.124 54.9654V61.4138C36.1221 65.8471 34.9652 70.2035 32.7674 74.0537C32.5445 74.4425 32.0487 74.5774 31.6595 74.355C31.2703 74.1326 31.1348 73.6371 31.3566 73.2476C33.4144 69.6429 34.4974 65.5644 34.4992 61.4138V54.9654C34.4992 50.296 35.7718 47.0662 38.3899 45.0915C40.6087 43.418 43.3563 43.0066 45.5643 42.6761C48.0927 42.2976 49.1224 42.054 49.1224 41.1546V39.5298C49.1224 38.1837 50.2136 37.0926 51.5596 37.0926C52.9057 37.0926 53.9968 38.1837 53.9968 39.5298V47.3537ZM76.7441 73.6506C76.7441 74.0993 76.3804 74.463 75.9317 74.463C75.483 74.463 75.1193 74.0993 75.1193 73.6506C75.1193 73.2019 75.483 72.8382 75.9317 72.8382C76.3804 72.8382 76.7441 73.2019 76.7441 73.6506ZM54.8092 35.4678C55.2579 35.4678 55.6216 35.104 55.6216 34.6554C55.6216 34.2067 55.2579 33.843 54.8092 33.843C54.3606 33.843 53.9968 34.2067 53.9968 34.6554C53.9968 35.104 54.3606 35.4678 54.8092 35.4678Z" fill="url(#paint1_linear_17_4032)"/>
<defs>
<linearGradient id="paint0_linear_17_4032" x1="-10.5111" y1="47.4216" x2="51.3198" y2="116.786" gradientUnits="userSpaceOnUse">
<stop stop-color="#F0D9D4"/>
<stop offset="1" stop-color="#E9C9C2"/>
</linearGradient>
<linearGradient id="paint1_linear_17_4032" x1="14.4526" y1="38.2605" x2="42.795" y2="90.2576" gradientUnits="userSpaceOnUse">
<stop stop-color="#AC6C44"/>
<stop offset="1" stop-color="#301103"/>
</linearGradient>
</defs>
</svg>
