<svg width="105" height="105" viewBox="0 0 105 105" fill="none" xmlns="http://www.w3.org/2000/svg">
<circle cx="52.5" cy="52.5" r="52.5" fill="url(#paint0_linear_17_3959)"/>
<path fill-rule="evenodd" clip-rule="evenodd" d="M71.6696 47.7404C70.2281 46.291 68.3971 45.2908 66.3986 44.8611V42.5502C66.3986 35.1378 60.3897 29.1289 52.9773 29.1289C45.565 29.1289 39.5561 35.1378 39.5561 42.5502V44.8653C35.7546 45.6985 32.7104 48.5393 31.6168 52.2742C30.5232 56.0092 31.5543 60.0432 34.3061 62.7953L52.3954 80.8825C52.5524 81.0402 52.7658 81.1289 52.9884 81.1289C53.2109 81.1289 53.4243 81.0402 53.5813 80.8825L71.6685 62.7953C75.8194 58.6355 75.8199 51.9007 71.6696 47.7404ZM41.2338 42.5502C41.2338 36.0643 46.4915 30.8066 52.9773 30.8066C59.4632 30.8066 64.7209 36.0643 64.7209 42.5502V44.6378C64.5291 44.6284 64.3361 44.6221 64.1432 44.6221C63.7758 44.6224 63.4087 44.6413 63.0433 44.6787V42.5502C63.0433 36.9909 58.5366 32.4842 52.9773 32.4842C47.4181 32.4842 42.9114 36.9909 42.9114 42.5502V44.6766C42.556 44.6409 42.1963 44.6221 41.8335 44.6221C41.6322 44.6221 41.433 44.6284 41.2338 44.6399V42.5502ZM61.3656 44.9869V42.5502C61.3656 37.9174 57.6101 34.1619 52.9773 34.1619C48.3446 34.1619 44.5891 37.9174 44.5891 42.5502V44.9817C46.3958 45.4628 48.0425 46.4147 49.361 47.7404L52.9878 51.3673L56.6158 47.7404C57.9288 46.4201 59.5674 45.4702 61.3656 44.9869ZM70.4826 61.6094L52.9878 79.1031L35.492 61.6094C32.0071 58.1041 32.0153 52.4399 35.5104 48.9448C39.0056 45.4496 44.6697 45.4414 48.1751 48.9263L52.3954 53.1467C52.7229 53.474 53.2538 53.474 53.5813 53.1467L57.8017 48.9263C60.0648 46.649 63.3728 45.7554 66.4749 46.5833C69.5769 47.4113 71.9996 49.8344 72.827 52.9366C73.6545 56.0387 72.7603 59.3466 70.4826 61.6094ZM52.9773 55.9714C51.1721 55.9714 49.5693 57.1266 48.9984 58.8392C48.4276 60.5519 49.0166 62.4377 50.4609 63.5209V66.8762C50.4609 67.3394 50.8364 67.715 51.2997 67.715H54.655C55.1183 67.715 55.4938 67.3394 55.4938 66.8762V63.5209C56.9381 62.4377 57.5271 60.5519 56.9563 58.8392C56.3854 57.1266 54.7826 55.9714 52.9773 55.9714ZM54.235 62.3465C53.9759 62.4963 53.8164 62.7728 53.8162 63.0721V66.0373H52.1385V63.0721C52.1385 62.7726 51.9789 62.4959 51.7197 62.346C50.7331 61.7767 50.2519 60.6156 50.5465 59.5153C50.8412 58.415 51.8382 57.6498 52.9773 57.6498C54.1165 57.6498 55.1135 58.415 55.4082 59.5153C55.7028 60.6156 55.2216 61.7767 54.235 62.346V62.3465Z" fill="url(#paint1_linear_17_3959)"/>
<defs>
<linearGradient id="paint0_linear_17_3959" x1="-10.5111" y1="47.4216" x2="51.3198" y2="116.786" gradientUnits="userSpaceOnUse">
<stop stop-color="#F0D9D4"/>
<stop offset="1" stop-color="#E9C9C2"/>
</linearGradient>
<linearGradient id="paint1_linear_17_3959" x1="19.8286" y1="43.2992" x2="50.6493" y2="90.7087" gradientUnits="userSpaceOnUse">
<stop stop-color="#AC6C44"/>
<stop offset="1" stop-color="#301103"/>
</linearGradient>
</defs>
</svg>
