<svg width="16" height="17" viewBox="0 0 16 17" fill="none" xmlns="http://www.w3.org/2000/svg">
<path fill-rule="evenodd" clip-rule="evenodd" d="M8.48332 15.1155C6.44288 14.0606 4.65515 12.5696 3.17005 10.676C1.94703 9.10858 1.12337 7.64096 0.577378 6.06018C0.221704 5.03851 0.0844265 4.19321 0.143705 3.39783C0.193625 2.76219 0.43386 2.21308 0.858173 1.76048L2.02503 0.515831C2.35887 0.176381 2.7395 0 3.13573 0C3.53509 0 3.9126 0.176381 4.23396 0.512503C4.44611 0.722164 4.66139 0.95512 4.8673 1.18142L4.87591 1.19087C4.97896 1.30403 5.0793 1.4142 5.18554 1.52753L6.11528 2.51925C6.45536 2.87867 6.63319 3.29466 6.63319 3.71731C6.63319 4.13996 6.45224 4.55595 6.11528 4.91537C6.01856 5.01854 5.92185 5.1217 5.82825 5.22487C5.56305 5.5144 5.2885 5.81059 4.99522 6.09346C5.20426 6.60929 5.50377 7.11514 5.94993 7.7175C6.83287 8.8723 7.75637 9.77084 8.77348 10.4597C8.87644 10.5296 8.99187 10.5928 9.11667 10.6594L9.11669 10.6594C9.21653 10.7127 9.3226 10.7692 9.42555 10.8325L10.5425 9.64105C10.8701 9.29162 11.2538 9.10525 11.6532 9.10525C12.0525 9.10525 12.4332 9.29162 12.7514 9.64438L14.6265 11.6445C15.2973 12.36 15.2973 13.2985 14.6327 14.0373C14.4892 14.197 14.3395 14.3534 14.1928 14.5032C14.178 14.5185 14.1633 14.5338 14.1486 14.549C13.9494 14.7551 13.7592 14.9518 13.5907 15.1688C13.5876 15.1754 13.5813 15.1821 13.5782 15.1854C13.0696 15.7744 12.4457 16.0607 11.6688 16.0607C11.5999 16.0607 11.5338 16.0576 11.4651 16.0544L11.4566 16.054C10.2991 15.9741 9.26019 15.5082 8.48332 15.1155ZM1.40104 2.33622C1.10153 2.6557 0.942412 3.0251 0.904972 3.46772C0.855053 4.13663 0.976731 4.87211 1.29809 5.78729C1.816 7.27821 2.5991 8.66929 3.76284 10.1635C5.17618 11.9673 6.87967 13.3883 8.82028 14.39C9.53474 14.7528 10.4863 15.1787 11.5097 15.2486C11.5627 15.252 11.6189 15.2553 11.6719 15.2553C12.2241 15.2553 12.6516 15.0623 13.0104 14.6496C13.205 14.4011 13.4192 14.1793 13.6266 13.9646C13.6386 13.9522 13.6505 13.9398 13.6624 13.9274C13.8091 13.7777 13.9463 13.6346 14.0774 13.4848C14.458 13.0622 14.4611 12.6295 14.0867 12.2302L12.2054 10.2268C12.0837 10.087 11.8903 9.93058 11.6532 9.93058C11.4598 9.93058 11.2632 10.0337 11.0822 10.2268L9.91538 11.4714C9.86234 11.528 9.7001 11.6977 9.45051 11.6977C9.35067 11.6977 9.25083 11.6711 9.14787 11.6145C9.14163 11.6112 9.13617 11.6079 9.13071 11.6045C9.12525 11.6012 9.11979 11.5979 9.11355 11.5946C9.01059 11.5247 8.89515 11.4614 8.77036 11.3949C8.74783 11.3826 8.72504 11.3703 8.70207 11.3579C8.58827 11.2965 8.47016 11.2328 8.35852 11.1553C7.27278 10.4198 6.28688 9.46467 5.3509 8.23333C4.82986 7.53446 4.49603 6.94874 4.2558 6.33308C4.25423 6.32808 4.25267 6.32392 4.25111 6.31976C4.24955 6.3156 4.24799 6.31144 4.24644 6.30645C4.18404 6.10677 4.14348 5.84387 4.40243 5.56765L4.41803 5.55101C4.69495 5.28948 4.94786 5.01657 5.21375 4.72966C5.23545 4.70624 5.25724 4.68273 5.27914 4.65912C5.3275 4.60754 5.37586 4.55512 5.42422 4.50271C5.47257 4.45029 5.52093 4.39788 5.56929 4.34629C5.76273 4.13996 5.86257 3.9303 5.86257 3.72397C5.86257 3.51764 5.76273 3.30798 5.56929 3.10164L4.63955 2.10992C4.58534 2.05044 4.53113 1.99179 4.4773 1.93354C4.4227 1.87446 4.36849 1.81581 4.31507 1.75715C4.28686 1.72661 4.25891 1.69631 4.23118 1.66623C4.05041 1.47016 3.87856 1.28377 3.69732 1.10488C3.51949 0.911856 3.32605 0.815346 3.13573 0.815346C2.9423 0.815346 2.74262 0.911856 2.56166 1.09822L1.40104 2.33622Z" fill="white"/>
</svg>
