<svg width="30" height="31" viewBox="0 0 30 31" fill="none" xmlns="http://www.w3.org/2000/svg">
<path fill-rule="evenodd" clip-rule="evenodd" d="M12.4217 26.3131L8.78955 27.1755L7.59621 23.6383L4.01945 22.5691L4.75462 18.9091L2.19164 16.1948L4.65833 13.3927L3.79588 9.76053L7.33314 8.56718L8.40231 4.99043L12.0623 5.72559L14.7766 3.16262L17.5787 5.62931L21.2109 4.76686L22.4042 8.30412L25.981 9.37328L25.2458 13.0333L27.8088 15.7476L25.3421 18.5497L26.2046 22.1819L22.6673 23.3752L21.5981 26.952L17.9381 26.2168L15.2238 28.7798L12.4217 26.3131Z" fill="url(#paint0_linear_17_3517)"/>
<path fill-rule="evenodd" clip-rule="evenodd" d="M12.4217 26.3131L8.78955 27.1755L7.59621 23.6383L4.01945 22.5691L4.75462 18.9091L2.19164 16.1948L4.65833 13.3927L3.79588 9.76053L7.33314 8.56718L8.40231 4.99043L12.0623 5.72559L14.7766 3.16262L17.5787 5.62931L21.2109 4.76686L22.4042 8.30412L25.981 9.37328L25.2458 13.0333L27.8088 15.7476L25.3421 18.5497L26.2046 22.1819L22.6673 23.3752L21.5981 26.952L17.9381 26.2168L15.2238 28.7798L12.4217 26.3131Z" fill="url(#paint1_linear_17_3517)"/>
<path d="M10.6777 16.6574L13.7833 19.3748L20.7709 12.3872" stroke="white"/>
<defs>
<linearGradient id="paint0_linear_17_3517" x1="34.4534" y1="17.309" x2="18.3759" y2="-0.767438" gradientUnits="userSpaceOnUse">
<stop stop-color="#CDCDD1"/>
<stop offset="1" stop-color="#E2E3E7"/>
</linearGradient>
<linearGradient id="paint1_linear_17_3517" x1="0.87949" y1="11.2169" x2="11.0647" y2="30.6058" gradientUnits="userSpaceOnUse">
<stop stop-color="#F0D9D4"/>
<stop offset="1" stop-color="#E9C9C2"/>
</linearGradient>
</defs>
</svg>
