<svg width="116" height="112" viewBox="0 0 116 112" fill="none" xmlns="http://www.w3.org/2000/svg">
<path fill-rule="evenodd" clip-rule="evenodd" d="M56.6492 52.8395L43.2727 85.8099H35.9176L0 0H13.2392L42.6598 70.6093H43.1501L71.7125 0H78.087L67.1596 26.9337C68.9268 25.9988 70.8466 25.2318 72.919 24.6325C76.3105 23.6518 79.8859 23.1615 83.6452 23.1615C87.2411 23.1615 90.6939 23.5905 94.0037 24.4486C97.3135 25.3067 100.276 26.5735 102.891 28.2488C105.506 29.9241 107.672 31.9672 109.388 34.3781C111.104 36.7889 112.208 39.5062 112.698 42.53H104.362C103.708 37.7083 101.522 34.1738 97.8039 31.9264C94.0854 29.679 89.5702 28.5553 84.2582 28.5553C81.0709 28.5553 78.2515 28.9434 75.7998 29.7198C73.348 30.4962 71.2845 31.5177 69.6092 32.7845C67.9338 34.0512 66.6671 35.5426 65.809 37.2588C64.9509 38.975 64.5219 40.8138 64.5219 42.7752C64.5219 46.2893 65.7886 49.1088 68.322 51.2336C70.8555 53.3584 74.0223 55.238 77.8224 56.8725C81.6226 58.507 85.7496 60.0597 90.2036 61.5308C94.6575 63.0018 98.7845 64.8201 102.585 66.9858C106.385 69.1515 109.552 71.8484 112.085 75.0765C114.618 78.3046 115.885 82.452 115.885 87.5189C115.885 91.1965 115.15 94.5471 113.679 97.5709C112.208 100.595 110.124 103.169 107.427 105.294C104.73 107.419 101.481 109.053 97.6813 110.197C93.8811 111.341 89.6111 111.913 84.8711 111.913C80.2128 111.913 75.9223 111.362 71.9996 110.259C68.0769 109.155 64.6649 107.602 61.7637 105.6C58.8625 103.598 56.5743 101.167 54.8989 98.3064C53.2236 95.4461 52.3042 92.2589 52.1407 88.7448H60.4766C60.5583 90.1341 60.8852 91.8298 61.4572 93.8321C62.0293 95.8343 63.1326 97.7752 64.7671 99.6549C66.4015 101.535 68.7715 103.149 71.877 104.497C74.9825 105.845 79.1096 106.52 84.2582 106.52C90.7143 106.52 95.8833 105.294 99.7652 102.842C103.647 100.39 105.588 96.5085 105.588 91.1965C105.588 86.9468 104.362 83.5553 101.91 81.0219C99.4588 78.4884 96.3737 76.3432 92.6553 74.5861C88.9368 72.8291 84.9119 71.2559 80.5806 69.8666C76.2492 68.4773 72.2243 66.8019 68.5059 64.8406C64.7875 62.8792 61.7024 60.4275 59.2507 57.4854C58.1252 56.1349 57.2581 54.5862 56.6492 52.8395Z" fill="url(#paint0_linear_17_3842)"/>
<defs>
<linearGradient id="paint0_linear_17_3842" x1="-11.6008" y1="50.5439" x2="53.9993" y2="126.749" gradientUnits="userSpaceOnUse">
<stop stop-color="#F0D9D4"/>
<stop offset="1" stop-color="#E9C9C2"/>
</linearGradient>
</defs>
</svg>
